<?xml version="1.0" encoding="utf-8"?>
<!-- Generator: Adobe Illustrator 16.0.0, SVG Export Plug-In . SVG Version: 6.00 Build 0)  -->
<!DOCTYPE svg PUBLIC "-//W3C//DTD SVG 1.1//EN" "http://www.w3.org/Graphics/SVG/1.1/DTD/svg11.dtd">
<svg version="1.1" id="Layer_1" xmlns="http://www.w3.org/2000/svg" xmlns:xlink="http://www.w3.org/1999/xlink" x="0px" y="0px"
	 width="146.802px" height="104.453px" viewBox="0 0 146.802 104.453" enable-background="new 0 0 146.802 104.453"
	 xml:space="preserve">
<rect x="-139.917" y="145.505" display="none" fill="#0F0F0F" width="792" height="182"/>
<rect x="-39.917" y="-13.495" display="none" fill="#F2F2F2" width="601" height="132"/>
<rect x="-139.917" y="-216.495" display="none" fill="#FFFFFF" width="792" height="182"/>
<g id="White" display="none">
	<text transform="matrix(1 0 0 1 195.1787 251.8311)" display="inline" fill="#FFFFFF" font-family="'Lato-Black'" font-size="72">Tripbook</text>
</g>
<g id="Color" display="none">
	<text transform="matrix(1 0 0 1 195.1787 74.8311)" display="inline" fill="#2D2D2D" font-family="'Lato-Black'" font-size="72">Tripbook</text>
</g>
<g id="Black" display="none">
	<text transform="matrix(1 0 0 1 195.1787 -102.1685)" display="inline" fill="#0F0F0F" font-family="'Lato-Black'" font-size="72">Tripbook</text>
</g>
<g display="none">
	<path display="inline" fill-rule="evenodd" clip-rule="evenodd" fill="#0F0F0F" d="M29.529-104.313
		c-1.37,0.233-1.996-0.511-2.414-1.659c-4.582-12.594-9.19-25.178-13.753-37.778c-0.779-2.152-0.048-3.693,2.046-4.802
		c16.559-8.773,33.078-17.621,49.635-26.396c2.768-1.466,4.231-0.665,5.503,2.806c4.757,12.992,9.508,25.985,14.224,38.99
		c2.641,7.282,2.619,7.319-4.678,10.367c-15.778,6.589-31.639,12.962-48.074,17.775C31.191-104.767,30.359-104.543,29.529-104.313z"
		/>
	<path display="inline" fill-rule="evenodd" clip-rule="evenodd" fill="#0F0F0F" d="M33.325-89.017
		c-6.313,0.927-12.478,2.758-18.912,2.99c-3.833,0.138-7.597,0.022-11.077-1.765c-2.602-1.335-3.583-3.531-3.285-6.479
		c0.399-3.947,10.046-13.582,14.886-14.532c-0.838,1.955-2.483,3.056-3.625,4.534c-1.177,1.523-2.995,3.104-1.9,5.144
		c0.998,1.859,3.295,1.384,5.079,1.309c7.871-0.33,15.362-2.595,22.765-4.996c24.834-8.046,48.758-18.396,72.569-29.023
		c2.443-1.092,2.428-2.168,1.064-4.131c-2.289-3.291-4.398-6.709-6.545-10.097c-0.766-1.207-2.406-2.688-0.469-3.847
		c1.826-1.091,3.811-3.291,6.334-0.805c3.711,3.655,7.595,7.137,11.291,10.807c1.345,1.336,2.457,1.675,4.23,0.766
		c3.946-2.023,7.99-3.861,12.029-5.7c3.787-1.726,7.054-0.692,8.518,2.587c1.373,3.078,0.02,5.975-3.726,7.778
		c-3.997,1.925-7.992,3.866-12.062,5.63c-1.649,0.716-2.234,1.548-2.08,3.412c0.43,5.188,0.451,10.41,0.925,15.593
		c0.317,3.487-2.341,3.854-4.43,4.536c-2.38,0.774-2.435-1.532-2.907-2.969c-1.318-4.011-2.588-8.039-3.799-12.083
		c-0.41-1.369-1.036-2.294-2.509-1.503c-3.128,1.683-6.642,2.611-9.472,4.869c-0.861,1.044-2.016,1.459-3.321,1.544
		c-3.64,0.906-6.923,2.637-10.201,4.383c-0.936,1.312-2.393,1.833-3.782,2.415c-16.389,6.862-32.821,13.61-49.896,18.632
		C37.166-89.475,35.351-88.617,33.325-89.017z"/>
	<path display="inline" fill-rule="evenodd" clip-rule="evenodd" fill="#0F0F0F" d="M93.949-107.215
		c3.667,9.811,7.408,19.594,10.957,29.447c1.039,2.884-0.606,4.654-3.996,4.488c-9.416-0.455-18.826-1.011-28.24-1.543
		c-9.734-0.552-19.465-1.196-29.203-1.652c-5.618-0.264-5.632-0.131-7.567-5.488c-0.437-1.21-0.807-2.446-1.208-3.671
		c0.682-1.12,1.85-1.458,2.99-1.78c17.955-5.062,35.208-12.015,52.312-19.374C91.253-107.33,92.508-108.224,93.949-107.215z"/>
	<path display="inline" fill-rule="evenodd" clip-rule="evenodd" fill="#0F0F0F" d="M93.949-107.215
		c-5.531,1.554-10.576,4.305-15.873,6.437C63.85-95.05,49.503-89.682,34.692-85.634c-0.456-1.127-0.911-2.254-1.366-3.383
		c7.252-2.394,14.549-4.665,21.749-7.213c12.11-4.285,24.027-9.08,35.793-14.242c0.584-0.255,1.219-0.398,1.829-0.593
		C93.113-109.78,93.531-108.497,93.949-107.215z"/>
	<path display="inline" fill-rule="evenodd" clip-rule="evenodd" fill="#0F0F0F" d="M79.147-172.336
		c-0.636,0.169-1.581-0.247-1.999-1.44c-0.41-1.176,0.084-1.959,1.191-2.648c3.633-2.256,5.683-1.627,7.137,2.352
		c4.777,13.076,9.566,26.149,14.321,39.233c0.491,1.353,1.503,2.962-0.677,3.818c-2.318,0.911-2.441-1.143-2.914-2.434
		c-4.465-12.171-8.869-24.366-13.32-36.542C82.369-171.413,82.196-173.426,79.147-172.336z"/>
	<path display="inline" fill-rule="evenodd" clip-rule="evenodd" fill="#0F0F0F" d="M107.211-113.869
		c3.379,9.106,6.828,18.189,10.099,27.337c1.146,3.204-0.466,4.981-3.9,4.826c-1.032-0.046-2.001-0.122-2.37-1.251
		c-0.299-0.916-0.018-1.72,0.844-2.236c1.703-1.024,0.986-2.339,0.501-3.678c-2.827-7.815-5.63-15.641-8.44-23.46
		C104.711-113.527,105.875-113.883,107.211-113.869z"/>
	<path display="inline" fill-rule="evenodd" clip-rule="evenodd" fill="#0F0F0F" d="M107.211-113.869
		c-0.852,1.016-2.121,1.144-3.268,1.536c-0.348-1.037-0.697-2.075-1.046-3.112c0.833-1.103,2.002-1.487,3.321-1.546
		C106.549-115.951,106.88-114.911,107.211-113.869z"/>
</g>
<g>
	<path fill-rule="evenodd" clip-rule="evenodd" fill="#FCD100" d="M29.53,73.407c-1.37,0.234-1.996-0.51-2.414-1.658
		c-4.582-12.594-9.19-25.178-13.753-37.779c-0.779-2.153-0.048-3.693,2.046-4.802c16.559-8.773,33.078-17.621,49.635-26.396
		c2.767-1.466,4.231-0.666,5.502,2.806c4.756,12.992,9.508,25.985,14.224,38.99c2.64,7.283,2.619,7.32-4.678,10.367
		c-15.779,6.59-31.639,12.963-48.074,17.775C31.192,72.954,30.36,73.179,29.53,73.407z"/>
	<path fill-rule="evenodd" clip-rule="evenodd" fill="#FCD100" d="M33.326,88.704c-6.313,0.928-12.478,2.758-18.912,2.99
		c-3.833,0.139-7.597,0.023-11.077-1.764c-2.602-1.336-3.583-3.531-3.285-6.479c0.399-3.947,10.046-13.582,14.886-14.533
		c-0.838,1.955-2.483,3.057-3.625,4.535c-1.177,1.523-2.995,3.104-1.9,5.143c0.998,1.859,3.295,1.385,5.079,1.309
		c7.871-0.33,15.362-2.594,22.765-4.996c24.834-8.045,48.758-18.396,72.569-29.023c2.443-1.092,2.428-2.168,1.064-4.13
		c-2.289-3.292-4.397-6.709-6.544-10.097c-0.766-1.207-2.406-2.688-0.468-3.847c1.825-1.091,3.811-3.291,6.333-0.805
		c3.71,3.655,7.595,7.136,11.291,10.807c1.345,1.336,2.457,1.674,4.231,0.766c3.946-2.024,7.99-3.862,12.028-5.701
		c3.788-1.725,7.054-0.693,8.518,2.586c1.373,3.079,0.02,5.975-3.725,7.779c-3.998,1.925-7.992,3.866-12.062,5.629
		c-1.649,0.717-2.235,1.549-2.081,3.412c0.43,5.188,0.452,10.41,0.925,15.594c0.318,3.486-2.341,3.854-4.43,4.535
		c-2.38,0.775-2.434-1.531-2.907-2.969c-1.319-4.01-2.588-8.039-3.799-12.082c-0.411-1.369-1.037-2.295-2.509-1.504
		c-3.128,1.684-6.642,2.611-9.472,4.869c-0.86,1.045-2.015,1.459-3.321,1.545c-3.64,0.906-6.923,2.637-10.201,4.383
		c-0.936,1.312-2.393,1.832-3.783,2.414c-16.389,6.863-32.821,13.611-49.896,18.633C37.167,88.247,35.351,89.104,33.326,88.704z"/>
	<path fill-rule="evenodd" clip-rule="evenodd" fill="#FCD100" d="M93.949,70.507c3.667,9.811,7.408,19.594,10.958,29.447
		c1.039,2.883-0.606,4.654-3.996,4.488c-9.416-0.455-18.827-1.012-28.24-1.543c-9.734-0.553-19.464-1.197-29.204-1.652
		c-5.618-0.264-5.631-0.131-7.567-5.488c-0.437-1.211-0.807-2.447-1.208-3.672c0.682-1.119,1.85-1.457,2.99-1.779
		c17.955-5.062,35.208-12.016,52.312-19.375C91.253,70.392,92.508,69.497,93.949,70.507z"/>
	<path fill-rule="evenodd" clip-rule="evenodd" fill="#CD9A00" d="M93.949,70.507c-5.53,1.553-10.576,4.305-15.872,6.436
		C63.85,82.671,49.503,88.04,34.692,92.087c-0.456-1.127-0.911-2.254-1.366-3.383c7.252-2.393,14.549-4.664,21.748-7.213
		c12.111-4.285,24.027-9.08,35.794-14.242c0.584-0.254,1.218-0.398,1.829-0.592C93.114,67.94,93.531,69.224,93.949,70.507z"/>
	<path fill-rule="evenodd" clip-rule="evenodd" fill="#FCD201" d="M79.148,5.385c-0.636,0.169-1.582-0.247-1.999-1.44
		c-0.411-1.176,0.084-1.96,1.191-2.648c3.632-2.256,5.683-1.628,7.137,2.351c4.777,13.077,9.567,26.15,14.321,39.234
		c0.491,1.352,1.503,2.961-0.677,3.818c-2.318,0.911-2.441-1.143-2.915-2.434C91.742,32.095,87.338,19.9,82.887,7.724
		C82.37,6.308,82.197,4.295,79.148,5.385z"/>
	<path fill-rule="evenodd" clip-rule="evenodd" fill="#FCD201" d="M107.211,63.853c3.379,9.105,6.829,18.189,10.099,27.336
		c1.146,3.205-0.465,4.982-3.9,4.826c-1.032-0.045-2.001-0.121-2.37-1.25c-0.298-0.916-0.017-1.721,0.844-2.236
		c1.703-1.025,0.986-2.34,0.5-3.678c-2.828-7.816-5.63-15.641-8.44-23.461C104.711,64.194,105.875,63.839,107.211,63.853z"/>
	<path fill-rule="evenodd" clip-rule="evenodd" fill="#CF9E08" d="M107.211,63.853c-0.852,1.016-2.122,1.143-3.267,1.535
		c-0.349-1.037-0.697-2.074-1.046-3.111c0.833-1.104,2.002-1.488,3.321-1.547C106.55,61.771,106.88,62.81,107.211,63.853z"/>
</g>
<g display="none">
	<path display="inline" fill-rule="evenodd" clip-rule="evenodd" fill="#FFFFFF" d="M29.529,251.129
		c-1.37,0.233-1.996-0.511-2.414-1.659c-4.582-12.594-9.19-25.178-13.753-37.778c-0.779-2.152-0.048-3.693,2.046-4.802
		c16.559-8.773,33.078-17.621,49.635-26.396c2.768-1.466,4.231-0.665,5.503,2.806c4.757,12.992,9.508,25.985,14.224,38.99
		c2.641,7.282,2.619,7.319-4.678,10.367c-15.778,6.589-31.639,12.962-48.074,17.775C31.191,250.676,30.359,250.899,29.529,251.129z"
		/>
	<path display="inline" fill-rule="evenodd" clip-rule="evenodd" fill="#FFFFFF" d="M33.325,266.426
		c-6.313,0.927-12.478,2.758-18.912,2.99c-3.833,0.138-7.597,0.022-11.077-1.765c-2.602-1.335-3.583-3.531-3.285-6.479
		c0.399-3.947,10.046-13.582,14.886-14.532c-0.838,1.955-2.483,3.056-3.625,4.534c-1.177,1.523-2.995,3.104-1.9,5.144
		c0.998,1.859,3.295,1.384,5.079,1.309c7.871-0.33,15.362-2.595,22.765-4.996c24.834-8.046,48.758-18.396,72.569-29.023
		c2.443-1.092,2.428-2.168,1.064-4.131c-2.289-3.291-4.398-6.709-6.545-10.097c-0.766-1.207-2.406-2.688-0.469-3.847
		c1.826-1.091,3.811-3.291,6.334-0.805c3.711,3.655,7.595,7.137,11.291,10.807c1.345,1.336,2.457,1.675,4.23,0.766
		c3.946-2.023,7.99-3.861,12.029-5.7c3.787-1.726,7.054-0.692,8.518,2.587c1.373,3.078,0.02,5.975-3.726,7.778
		c-3.997,1.925-7.992,3.866-12.062,5.63c-1.649,0.716-2.234,1.548-2.08,3.412c0.43,5.188,0.451,10.41,0.925,15.593
		c0.317,3.487-2.341,3.854-4.43,4.536c-2.38,0.774-2.435-1.532-2.907-2.969c-1.318-4.011-2.588-8.039-3.799-12.083
		c-0.41-1.369-1.036-2.294-2.509-1.503c-3.128,1.683-6.642,2.611-9.472,4.869c-0.861,1.044-2.016,1.459-3.321,1.544
		c-3.64,0.906-6.923,2.637-10.201,4.383c-0.936,1.312-2.393,1.833-3.782,2.415c-16.389,6.862-32.821,13.61-49.896,18.632
		C37.166,265.968,35.351,266.825,33.325,266.426z"/>
	<path display="inline" fill-rule="evenodd" clip-rule="evenodd" fill="#FFFFFF" d="M93.949,248.228
		c3.667,9.811,7.408,19.594,10.957,29.447c1.039,2.884-0.606,4.654-3.996,4.488c-9.416-0.455-18.826-1.011-28.24-1.543
		c-9.734-0.552-19.465-1.196-29.203-1.652c-5.618-0.264-5.632-0.131-7.567-5.488c-0.437-1.21-0.807-2.446-1.208-3.671
		c0.682-1.12,1.85-1.458,2.99-1.78c17.955-5.062,35.208-12.015,52.312-19.374C91.253,248.112,92.508,247.219,93.949,248.228z"/>
	<path display="inline" fill-rule="evenodd" clip-rule="evenodd" fill="#FFFFFF" d="M93.949,248.228
		c-5.531,1.554-10.576,4.305-15.873,6.437c-14.227,5.729-28.573,11.097-43.384,15.145c-0.456-1.127-0.911-2.254-1.366-3.383
		c7.252-2.394,14.549-4.665,21.749-7.213c12.11-4.285,24.027-9.08,35.793-14.242c0.584-0.255,1.219-0.398,1.829-0.593
		C93.113,245.662,93.531,246.945,93.949,248.228z"/>
	<path display="inline" fill-rule="evenodd" clip-rule="evenodd" fill="#FFFFFF" d="M79.147,183.106
		c-0.636,0.169-1.581-0.247-1.999-1.44c-0.41-1.176,0.084-1.959,1.191-2.648c3.633-2.256,5.683-1.627,7.137,2.352
		c4.777,13.076,9.566,26.149,14.321,39.233c0.491,1.353,1.503,2.962-0.677,3.818c-2.318,0.911-2.441-1.143-2.914-2.434
		c-4.465-12.171-8.869-24.366-13.32-36.542C82.369,184.029,82.196,182.017,79.147,183.106z"/>
	<path display="inline" fill-rule="evenodd" clip-rule="evenodd" fill="#FFFFFF" d="M107.211,241.573
		c3.379,9.106,6.828,18.189,10.099,27.337c1.146,3.204-0.466,4.981-3.9,4.826c-1.032-0.046-2.001-0.122-2.37-1.251
		c-0.299-0.916-0.018-1.72,0.844-2.236c1.703-1.024,0.986-2.339,0.501-3.678c-2.827-7.815-5.63-15.641-8.44-23.46
		C104.711,241.915,105.875,241.56,107.211,241.573z"/>
	<path display="inline" fill-rule="evenodd" clip-rule="evenodd" fill="#FFFFFF" d="M107.211,241.573
		c-0.852,1.016-2.121,1.144-3.268,1.536c-0.348-1.037-0.697-2.075-1.046-3.112c0.833-1.103,2.002-1.487,3.321-1.546
		C106.549,239.491,106.88,240.531,107.211,241.573z"/>
</g>
</svg>
