<?xml version="1.0" encoding="utf-8"?>
<!-- Generator: Adobe Illustrator 19.0.0, SVG Export Plug-In . SVG Version: 6.00 Build 0)  -->
<svg version="1.1" id="Layer_1" xmlns="http://www.w3.org/2000/svg" xmlns:xlink="http://www.w3.org/1999/xlink" x="0px" y="0px"
	 viewBox="-54 76.5 146.8 104.5" style="enable-background:new -54 76.5 146.8 104.5;" xml:space="preserve">
<style type="text/css">
	.st0{display:none;fill:#0F0F0F;}
	.st1{display:none;fill:#F2F2F2;}
	.st2{display:none;fill:#FFFFFF;}
	.st3{display:none;}
	.st4{display:inline;fill:#0F0F0F;}
	.st5{fill:#FFFFFF;}
	.st6{fill:#D3D3D3;}
	.st7{display:inline;fill:#FFFFFF;}
</style>
<rect x="-193.9" y="222.1" class="st0" width="792" height="182"/>
<rect x="-93.9" y="63.1" class="st1" width="601" height="132"/>
<rect x="-193.9" y="-139.9" class="st2" width="792" height="182"/>
<g id="White" class="st3">
	<text transform="matrix(1 0 0 1 141.1787 328.3781)" class="st7" style="font-family:'Lato-Black'; font-size:72px;">Tripbook</text>
</g>
<g id="Color" class="st3">
	
		<text transform="matrix(1 0 0 1 141.1787 151.3781)" style="display:inline;fill:#2D2D2D; font-family:'Lato-Black'; font-size:72px;">Tripbook</text>
</g>
<g id="Black" class="st3">
	<text transform="matrix(1 0 0 1 141.1787 -25.6215)" class="st4" style="font-family:'Lato-Black'; font-size:72px;">Tripbook</text>
</g>
<g class="st3">
	<path class="st4" d="M-24.5-27.8c-1.4,0.2-2-0.5-2.4-1.7c-4.6-12.6-9.2-25.2-13.8-37.8c-0.8-2.2,0-3.7,2-4.8
		C-22-80.8-5.5-89.6,11-98.4c2.8-1.5,4.2-0.7,5.5,2.8c4.8,13,9.5,26,14.2,39c2.6,7.3,2.6,7.3-4.7,10.4C10.3-39.6-5.5-33.3-22-28.5
		C-22.8-28.2-23.6-28-24.5-27.8z"/>
	<path class="st4" d="M-20.7-12.5c-6.3,0.9-12.5,2.8-18.9,3c-3.8,0.1-7.6,0-11.1-1.8c-2.6-1.3-3.6-3.5-3.3-6.5
		c0.4-3.9,10-13.6,14.9-14.5c-0.8,2-2.5,3.1-3.6,4.5c-1.2,1.5-3,3.1-1.9,5.1c1,1.9,3.3,1.4,5.1,1.3c7.9-0.3,15.4-2.6,22.8-5
		c24.8-8,48.8-18.4,72.6-29c2.4-1.1,2.4-2.2,1.1-4.1c-2.3-3.3-4.4-6.7-6.5-10.1c-0.8-1.2-2.4-2.7-0.5-3.8c1.8-1.1,3.8-3.3,6.3-0.8
		c3.7,3.7,7.6,7.1,11.3,10.8c1.3,1.3,2.5,1.7,4.2,0.8c3.9-2,8-3.9,12-5.7c3.8-1.7,7.1-0.7,8.5,2.6c1.4,3.1,0,6-3.7,7.8
		c-4,1.9-8,3.9-12.1,5.6c-1.6,0.7-2.2,1.5-2.1,3.4c0.4,5.2,0.5,10.4,0.9,15.6c0.3,3.5-2.3,3.9-4.4,4.5c-2.4,0.8-2.4-1.5-2.9-3
		c-1.3-4-2.6-8-3.8-12.1c-0.4-1.4-1-2.3-2.5-1.5c-3.1,1.7-6.6,2.6-9.5,4.9c-0.9,1-2,1.5-3.3,1.5c-3.6,0.9-6.9,2.6-10.2,4.4
		c-0.9,1.3-2.4,1.8-3.8,2.4C18.5-25.2,2.1-18.5-15-13.5C-16.8-12.9-18.6-12.1-20.7-12.5z"/>
	<path class="st4" d="M39.9-30.7c3.7,9.8,7.4,19.6,11,29.4c1,2.9-0.6,4.7-4,4.5c-9.4-0.5-18.8-1-28.2-1.5C8.9,1.2-0.8,0.5-10.5,0.1
		c-5.6-0.3-5.6-0.1-7.6-5.5c-0.4-1.2-0.8-2.4-1.2-3.7c0.7-1.1,1.8-1.5,3-1.8c18-5.1,35.2-12,52.3-19.4
		C37.3-30.8,38.5-31.7,39.9-30.7z"/>
	<path class="st4" d="M39.9-30.7c-5.5,1.6-10.6,4.3-15.9,6.4C9.8-18.5-4.5-13.1-19.3-9.1c-0.5-1.1-0.9-2.3-1.4-3.4
		c7.3-2.4,14.5-4.7,21.7-7.2c12.1-4.3,24-9.1,35.8-14.2c0.6-0.3,1.2-0.4,1.8-0.6C39.1-33.2,39.5-32,39.9-30.7z"/>
	<path class="st4" d="M25.1-95.8c-0.6,0.2-1.6-0.2-2-1.4c-0.4-1.2,0.1-2,1.2-2.6c3.6-2.3,5.7-1.6,7.1,2.4
		c4.8,13.1,9.6,26.1,14.3,39.2c0.5,1.4,1.5,3-0.7,3.8c-2.3,0.9-2.4-1.1-2.9-2.4c-4.5-12.2-8.9-24.4-13.3-36.5
		C28.4-94.9,28.2-96.9,25.1-95.8z"/>
	<path class="st4" d="M53.2-37.3C56.6-28.2,60-19.1,63.3-10c1.1,3.2-0.5,5-3.9,4.8c-1,0-2-0.1-2.4-1.3c-0.3-0.9,0-1.7,0.8-2.2
		c1.7-1,1-2.3,0.5-3.7c-2.8-7.8-5.6-15.6-8.4-23.5C50.7-37,51.9-37.3,53.2-37.3z"/>
	<path class="st4" d="M53.2-37.3c-0.9,1-2.1,1.1-3.3,1.5c-0.3-1-0.7-2.1-1-3.1c0.8-1.1,2-1.5,3.3-1.5C52.5-39.4,52.9-38.4,53.2-37.3
		z"/>
</g>
<g>
	<path class="st5" d="M-24.5,150c-1.4,0.2-2-0.5-2.4-1.7c-4.6-12.6-9.2-25.2-13.8-37.8c-0.8-2.2,0-3.7,2-4.8
		C-22,96.9-5.5,88.1,11,79.3c2.8-1.5,4.2-0.7,5.5,2.8c4.8,13,9.5,26,14.2,39c2.6,7.3,2.6,7.3-4.7,10.4c-15.8,6.6-31.6,13-48.1,17.8
		C-22.8,149.5-23.6,149.7-24.5,150z"/>
	<path class="st5" d="M-20.7,165.3c-6.3,0.9-12.5,2.8-18.9,3c-3.8,0.1-7.6,0-11.1-1.8c-2.6-1.3-3.6-3.5-3.3-6.5
		c0.4-3.9,10-13.6,14.9-14.5c-0.8,2-2.5,3.1-3.6,4.5c-1.2,1.5-3,3.1-1.9,5.1c1,1.9,3.3,1.4,5.1,1.3c7.9-0.3,15.4-2.6,22.8-5
		c24.8-8,48.8-18.4,72.6-29c2.4-1.1,2.4-2.2,1.1-4.1c-2.3-3.3-4.4-6.7-6.5-10.1c-0.8-1.2-2.4-2.7-0.5-3.8c1.8-1.1,3.8-3.3,6.3-0.8
		c3.7,3.7,7.6,7.1,11.3,10.8c1.3,1.3,2.5,1.7,4.2,0.8c3.9-2,8-3.9,12-5.7c3.8-1.7,7.1-0.7,8.5,2.6c1.4,3.1,0,6-3.7,7.8
		c-4,1.9-8,3.9-12.1,5.6c-1.6,0.7-2.2,1.5-2.1,3.4c0.4,5.2,0.5,10.4,0.9,15.6c0.3,3.5-2.3,3.9-4.4,4.5c-2.4,0.8-2.4-1.5-2.9-3
		c-1.3-4-2.6-8-3.8-12.1c-0.4-1.4-1-2.3-2.5-1.5c-3.1,1.7-6.6,2.6-9.5,4.9c-0.9,1-2,1.5-3.3,1.5c-3.6,0.9-6.9,2.6-10.2,4.4
		c-0.9,1.3-2.4,1.8-3.8,2.4c-16.4,6.9-32.8,13.6-49.9,18.6C-16.8,164.8-18.6,165.7-20.7,165.3z"/>
	<path class="st5" d="M39.9,147.1c3.7,9.8,7.4,19.6,11,29.4c1,2.9-0.6,4.7-4,4.5c-9.4-0.5-18.8-1-28.2-1.5
		c-9.7-0.6-19.5-1.2-29.2-1.7c-5.6-0.3-5.6-0.1-7.6-5.5c-0.4-1.2-0.8-2.4-1.2-3.7c0.7-1.1,1.8-1.5,3-1.8c18-5.1,35.2-12,52.3-19.4
		C37.3,146.9,38.5,146,39.9,147.1z"/>
	<path class="st6" d="M39.9,147.1c-5.5,1.6-10.6,4.3-15.9,6.4c-14.2,5.7-28.6,11.1-43.4,15.1c-0.5-1.1-0.9-2.3-1.4-3.4
		c7.3-2.4,14.5-4.7,21.7-7.2c12.1-4.3,24-9.1,35.8-14.2c0.6-0.3,1.2-0.4,1.8-0.6C39.1,144.5,39.5,145.8,39.9,147.1z"/>
	<path class="st5" d="M25.1,81.9c-0.6,0.2-1.6-0.2-2-1.4c-0.4-1.2,0.1-2,1.2-2.6c3.6-2.3,5.7-1.6,7.1,2.4
		c4.8,13.1,9.6,26.2,14.3,39.2c0.5,1.4,1.5,3-0.7,3.8c-2.3,0.9-2.4-1.1-2.9-2.4c-4.5-12.2-8.9-24.4-13.3-36.5
		C28.4,82.9,28.2,80.8,25.1,81.9z"/>
	<path class="st5" d="M53.2,140.4c3.4,9.1,6.8,18.2,10.1,27.3c1.1,3.2-0.5,5-3.9,4.8c-1,0-2-0.1-2.4-1.3c-0.3-0.9,0-1.7,0.8-2.2
		c1.7-1,1-2.3,0.5-3.7c-2.8-7.8-5.6-15.6-8.4-23.5C50.7,140.7,51.9,140.4,53.2,140.4z"/>
	<path class="st6" d="M53.2,140.4c-0.9,1-2.1,1.1-3.3,1.5c-0.3-1-0.7-2.1-1-3.1c0.8-1.1,2-1.5,3.3-1.5
		C52.6,138.3,52.9,139.4,53.2,140.4z"/>
</g>
<g class="st3">
	<path class="st7" d="M-24.5,327.7c-1.4,0.2-2-0.5-2.4-1.7c-4.6-12.6-9.2-25.2-13.8-37.8c-0.8-2.2,0-3.7,2-4.8
		C-22,274.7-5.5,265.8,11,257c2.8-1.5,4.2-0.7,5.5,2.8c4.8,13,9.5,26,14.2,39c2.6,7.3,2.6,7.3-4.7,10.4c-15.8,6.6-31.6,13-48.1,17.8
		C-22.8,327.2-23.6,327.4-24.5,327.7z"/>
	<path class="st7" d="M-20.7,343c-6.3,0.9-12.5,2.8-18.9,3c-3.8,0.1-7.6,0-11.1-1.8c-2.6-1.3-3.6-3.5-3.3-6.5
		c0.4-3.9,10-13.6,14.9-14.5c-0.8,2-2.5,3.1-3.6,4.5c-1.2,1.5-3,3.1-1.9,5.1c1,1.9,3.3,1.4,5.1,1.3c7.9-0.3,15.4-2.6,22.8-5
		c24.8-8,48.8-18.4,72.6-29c2.4-1.1,2.4-2.2,1.1-4.1c-2.3-3.3-4.4-6.7-6.5-10.1c-0.8-1.2-2.4-2.7-0.5-3.8c1.8-1.1,3.8-3.3,6.3-0.8
		c3.7,3.7,7.6,7.1,11.3,10.8c1.3,1.3,2.5,1.7,4.2,0.8c3.9-2,8-3.9,12-5.7c3.8-1.7,7.1-0.7,8.5,2.6c1.4,3.1,0,6-3.7,7.8
		c-4,1.9-8,3.9-12.1,5.6c-1.6,0.7-2.2,1.5-2.1,3.4c0.4,5.2,0.5,10.4,0.9,15.6c0.3,3.5-2.3,3.9-4.4,4.5c-2.4,0.8-2.4-1.5-2.9-3
		c-1.3-4-2.6-8-3.8-12.1c-0.4-1.4-1-2.3-2.5-1.5c-3.1,1.7-6.6,2.6-9.5,4.9c-0.9,1-2,1.5-3.3,1.5c-3.6,0.9-6.9,2.6-10.2,4.4
		c-0.9,1.3-2.4,1.8-3.8,2.4C18.5,330.2,2.1,336.9-15,342C-16.8,342.5-18.6,343.4-20.7,343z"/>
	<path class="st7" d="M39.9,324.8c3.7,9.8,7.4,19.6,11,29.4c1,2.9-0.6,4.7-4,4.5c-9.4-0.5-18.8-1-28.2-1.5
		c-9.7-0.6-19.5-1.2-29.2-1.7c-5.6-0.3-5.6-0.1-7.6-5.5c-0.4-1.2-0.8-2.4-1.2-3.7c0.7-1.1,1.8-1.5,3-1.8c18-5.1,35.2-12,52.3-19.4
		C37.3,324.7,38.5,323.8,39.9,324.8z"/>
	<path class="st7" d="M39.9,324.8c-5.5,1.6-10.6,4.3-15.9,6.4c-14.2,5.7-28.6,11.1-43.4,15.1c-0.5-1.1-0.9-2.3-1.4-3.4
		c7.3-2.4,14.5-4.7,21.7-7.2c12.1-4.3,24-9.1,35.8-14.2c0.6-0.3,1.2-0.4,1.8-0.6C39.1,322.2,39.5,323.5,39.9,324.8z"/>
	<path class="st7" d="M25.1,259.7c-0.6,0.2-1.6-0.2-2-1.4c-0.4-1.2,0.1-2,1.2-2.6c3.6-2.3,5.7-1.6,7.1,2.4
		c4.8,13.1,9.6,26.1,14.3,39.2c0.5,1.4,1.5,3-0.7,3.8c-2.3,0.9-2.4-1.1-2.9-2.4c-4.5-12.2-8.9-24.4-13.3-36.5
		C28.4,260.6,28.2,258.6,25.1,259.7z"/>
	<path class="st7" d="M53.2,318.1c3.4,9.1,6.8,18.2,10.1,27.3c1.1,3.2-0.5,5-3.9,4.8c-1,0-2-0.1-2.4-1.3c-0.3-0.9,0-1.7,0.8-2.2
		c1.7-1,1-2.3,0.5-3.7c-2.8-7.8-5.6-15.6-8.4-23.5C50.7,318.5,51.9,318.1,53.2,318.1z"/>
	<path class="st7" d="M53.2,318.1c-0.9,1-2.1,1.1-3.3,1.5c-0.3-1-0.7-2.1-1-3.1c0.8-1.1,2-1.5,3.3-1.5
		C52.5,316,52.9,317.1,53.2,318.1z"/>
</g>
</svg>
